<svg id="visual" viewBox="0 0 960 540" width="960" height="540" xmlns="http://www.w3.org/2000/svg" xmlns:xlink="http://www.w3.org/1999/xlink" version="1.1"><path d="M670 540L660.7 527.2C651.3 514.3 632.7 488.7 651.3 463C670 437.3 726 411.7 761.7 386C797.3 360.3 812.7 334.7 796 308.8C779.3 283 730.7 257 724.7 231.2C718.7 205.3 755.3 179.7 767.5 154C779.7 128.3 767.3 102.7 745.8 77C724.3 51.3 693.7 25.7 678.3 12.8L663 0L960 0L960 12.8C960 25.7 960 51.3 960 77C960 102.7 960 128.3 960 154C960 179.7 960 205.3 960 231.2C960 257 960 283 960 308.8C960 334.7 960 360.3 960 386C960 411.7 960 437.3 960 463C960 488.7 960 514.3 960 527.2L960 540Z" fill="#457b9d" stroke-linecap="round" stroke-linejoin="miter"></path></svg>